#!OML:ASF E:\Mandelcareful walks\Project 1\Capture day 1\Session 1\Subject1.ASF
:FULLY-SPECIFIED
:DEGREES
36
root -22.0552 16.576 -1.3636 155.837 84.6167 153.575
lowerback -6.11699 -1.2179 -4.9677
upperback 2.53325 -1.1652 -0.360414
thorax 6.18247 -0.758131 2.27953
lowerneck -23.6238 -1.61192 -4.70835
upperneck 24.9921 -1.09431 2.57115
head 12.2222 -0.527543 1.58847
rclavicle 6.70277e-015 9.93923e-016
rhumerus -26.6075 0.363473 -90.9343
rradius 22.6341
rwrist -3.71388
rhand -8.59026 -30.5374
rfingers 7.12502
rthumb 17.3408 -59.7838
lclavicle 6.70277e-015 9.93923e-016
lhumerus -24.8999 -2.89896 93.5184
lradius 19.1667
lwrist 0.942154
lhand -19.5251 -10.6197
lfingers 7.12502
lthumb 6.79827 19.2512
rfemur -5.1597 -2.43889 12.6206
rtibia 22.7599
rfoot -22.3405 -18.2173
rtoes 6.78477
lfemur -3.8962 -3.96468 -19.402
ltibia 23.8625
lfoot -25.5238 17.6941
ltoes 8.59232
37
root -22.0506 16.5748 -1.36115 155.51 84.6329 153.226
lowerback -6.12189 -1.20441 -5.02026
upperback 2.48299 -1.14554 -0.340976
thorax 6.13231 -0.749208 2.33218
lowerneck -23.7795 -1.58402 -4.55901
upperneck 25.2074 -1.02772 2.32941
head 12.3326 -0.516292 1.48589
rclavicle -1.91268e-014 -1.45113e-014
rhumerus -26.7002 0.321903 -90.8841
rradius 22.6769
rwrist -3.7593
rhand -8.66215 -30.4146
rfingers 7.12502
rthumb 17.2716 -59.6671
lclavicle -1.91268e-014 -1.45113e-014
lhumerus -25.018 -2.95111 93.5949
lradius 19.1981
lwrist 1.05768
lhand -19.5925 -10.6938
lfingers 7.12502
lthumb 6.73318 19.1791
rfemur -5.1739 -2.42944 12.6071
rtibia 22.7571
rfoot -22.4069 -18.2004
rtoes 6.67156
lfemur -3.88684 -4.21469 -19.4158
ltibia 23.8416
lfoot -25.6478 17.7913
ltoes 8.80897
38
root -22.0498 16.5768 -1.35966 155.397 84.6454 153.045
lowerback -6.14923 -1.20762 -5.04282
upperback 2.44287 -1.14895 -0.323627
thorax 6.10674 -0.751088 2.36262
lowerneck -23.8808 -1.57479 -4.48153
upperneck 25.2775 -0.984975 2.15162
head 12.3773 -0.514469 1.41328
rclavicle 2.11644e-014 -4.87022e-015
rhumerus -26.6513 0.192289 -90.8166
rradius 22.5987
rwrist -3.70156
rhand -8.62259 -30.3827
rfingers 7.12502
rthumb 17.3097 -59.6319
lclavicle 2.11644e-014 -4.87022e-015
lhumerus -25.0629 -2.83438 93.5988
lradius 19.2025
lwrist 0.971882
lhand -19.5845 -10.9905
lfingers 7.12502
lthumb 6.74094 18.8822
rfemur -5.24619 -2.43351 12.6054
rtibia 22.7594
rfoot -22.4085 -18.182
rtoes 6.88452
lfemur -3.94386 -4.5769 -19.4108
ltibia 23.8134
lfoot -25.7638 17.9535
ltoes 9.27901
39
root -22.0482 16.58 -1.35771 155.23 84.6529 152.803
lowerback -6.20193 -1.22769 -5.08878
upperback 2.40354 -1.17104 -0.309191
thorax 6.09868 -0.763356 2.40051
lowerneck -23.8255 -1.56595 -4.47955
upperneck 25.1883 -0.959532 2.09277
head 12.3299 -0.511322 1.39372
rclavicle 1.89715e-014 -1.2921e-014
rhumerus -26.6335 0.0871934 -90.7507
rradius 22.565
rwrist -3.61562
rhand -8.45468 -30.3804
rfingers 7.12502
rthumb 17.4713 -59.6153
lclavicle 1.89715e-014 -1.2921e-014
lhumerus -25.0478 -2.52414 93.5251
lradius 19.1105
lwrist 0.720723
lhand -19.3191 -11.3022
lfingers 7.12502
lthumb 6.99713 18.5621
rfemur -5.32399 -2.40253 12.6014
rtibia 22.764
rfoot -22.3841 -18.2
rtoes 7.23743
lfemur -3.99562 -4.66458 -19.4095
ltibia 23.7766
lfoot -25.8346 17.9558
ltoes 9.75043
40
root -22.0475 16.5827 -1.35617 154.983 84.7011 152.504
lowerback -6.22037 -1.24978 -5.09438
upperback 2.35124 -1.20119 -0.305589
thorax 6.05657 -0.77681 2.4042
lowerneck -23.7147 -1.53239 -4.49925
upperneck 25.0762 -0.911062 2.09278
head 12.2621 -0.491731 1.40403
rclavicle 1.85118e-015 2.98177e-015
rhumerus -26.7069 0.173737 -90.7705
rradius 22.6181
rwrist -3.61863
rhand -8.38091 -30.5183
rfingers 7.12502
rthumb 17.5423 -59.7468
lclavicle 1.85118e-015 2.98177e-015
lhumerus -25.0455 -2.15724 93.4118
lradius 18.992
lwrist 0.465721
lhand -19.0582 -11.5646
lfingers 7.12502
lthumb 7.24896 18.2912
rfemur -5.39546 -2.39963 12.6087
rtibia 22.7582
rfoot -22.201 -18.2223
rtoes 6.90517
lfemur -4.02111 -4.71788 -19.4096
ltibia 23.7586
lfoot -25.9129 17.9851
ltoes 9.895
